<svg id="Capa_1" data-name="Capa 1" xmlns="http://www.w3.org/2000/svg" viewBox="0 0 1080 1080"><defs><style>.cls-1{fill:#101820;}.cls-2{fill:#f3e600;}</style></defs><rect class="cls-1" x="40" y="31" width="1000" height="1000" rx="165.19"/><path class="cls-2" d="M757.21,633.28h0a33.48,33.48,0,0,1-33.49-33.48V459.93a33.49,33.49,0,0,1,33.49-33.49h0a33.49,33.49,0,0,1,33.48,33.49V599.8A33.48,33.48,0,0,1,757.21,633.28Z"/><path class="cls-2" d="M365.64,693.35h0a33.48,33.48,0,0,0,33.49-33.48v-260a33.49,33.49,0,0,0-33.49-33.49h0a33.49,33.49,0,0,0-33.48,33.49v260A33.48,33.48,0,0,0,365.64,693.35Z"/><rect class="cls-2" x="191.65" y="460.31" width="66.97" height="139.12" rx="10.05" transform="translate(450.27 1059.73) rotate(180)"/><path class="cls-2" d="M623.34,251.9H612.93a28.28,28.28,0,0,0-28.28,28.28v54.24a26.25,26.25,0,0,1-26.25,26.24h0a26.24,26.24,0,0,1-26.25-26.24V172.74c0-18.28-14.33-33.76-32.6-34.23A33.49,33.49,0,0,0,465.18,172V887c0,18.28,14.33,33.76,32.6,34.23a33.49,33.49,0,0,0,34.37-33.48V725.31a26.25,26.25,0,0,1,26.25-26.25h0a26.25,26.25,0,0,1,26.25,26.25v54.24a28.28,28.28,0,0,0,28.28,28.28h10.41a28.28,28.28,0,0,0,28.28-28.28V280.18A28.28,28.28,0,0,0,623.34,251.9ZM588.62,618.4a23.23,23.23,0,0,1-23.22,23.23h0a23.23,23.23,0,0,1-23.23-23.23V433.14a23.23,23.23,0,0,1,23.23-23.22h0a23.23,23.23,0,0,1,23.22,23.22Z"/><circle class="cls-2" cx="873.04" cy="529.86" r="31.37" transform="translate(-118.96 772.53) rotate(-45)"/></svg>