<?xml version="1.0" encoding="UTF-8"?>
<svg id="Capa_1" data-name="Capa 1" xmlns="http://www.w3.org/2000/svg" viewBox="0 0 1080 350">
  <defs>
    <style>
      .cls-1 {
        font-family: HarabaraMaisBold-HarabaraMaisBold, 'Harabara Mais Demo';
        font-size: 170px;
        font-weight: 700;
      }

      .cls-1, .cls-2 {
        fill: #101820;
      }

      .cls-3 {
        fill: #f3e600;
      }

      .cls-4 {
        letter-spacing: .01em;
      }

      .cls-5 {
        letter-spacing: 0em;
      }

      .cls-6 {
        letter-spacing: 0em;
      }
    </style>
  </defs>
  <rect class="cls-2" x="50.32" y="38.89" width="250" height="250" rx="40" ry="40"/>
  <text class="cls-1" transform="translate(329.63 161.97)"><tspan class="cls-6"><tspan x="0" y="0">discos</tspan></tspan><tspan class="cls-4" x="0" y="126">t</tspan><tspan class="cls-5" x="48.28" y="126">lacuache</tspan></text>
  <g>
    <path class="cls-3" d="M229.63,189.46h0c-4.62,0-8.37-3.75-8.37-8.37v-34.97c0-4.62,3.75-8.37,8.37-8.37h0c4.62,0,8.37,3.75,8.37,8.37v34.97c0,4.62-3.75,8.37-8.37,8.37Z"/>
    <path class="cls-3" d="M131.74,204.48h0c4.62,0,8.37-3.75,8.37-8.37v-65c0-4.62-3.75-8.37-8.37-8.37h0c-4.62,0-8.37,3.75-8.37,8.37v65c0,4.62,3.75,8.37,8.37,8.37Z"/>
    <rect class="cls-3" x="88.24" y="146.22" width="16.74" height="34.78" rx="8.37" ry="8.37" transform="translate(193.21 327.22) rotate(180)"/>
    <path class="cls-3" d="M196.16,94.12h-2.6c-3.9,0-7.07,3.17-7.07,7.07v13.56c0,3.62-2.94,6.56-6.56,6.56h0c-3.62,0-6.56-2.94-6.56-6.56v-40.42c0-4.57-3.58-8.44-8.15-8.56-4.72-.12-8.59,3.67-8.59,8.37V252.89c0,4.57,3.58,8.44,8.15,8.56,4.72,.12,8.59-3.67,8.59-8.37v-40.61c0-3.62,2.94-6.56,6.56-6.56h0c3.62,0,6.56,2.94,6.56,6.56v13.56c0,3.9,3.17,7.07,7.07,7.07h2.6c3.9,0,7.07-3.17,7.07-7.07V101.19c0-3.9-3.17-7.07-7.07-7.07Zm-8.68,91.63c0,3.21-2.6,5.81-5.81,5.81h0c-3.21,0-5.81-2.6-5.81-5.81v-46.32c0-3.21,2.6-5.81,5.81-5.81h0c3.21,0,5.81,2.6,5.81,5.81v46.32Z"/>
    <circle class="cls-3" cx="258.58" cy="163.61" r="7.84" transform="translate(-39.95 230.77) rotate(-45)"/>
  </g>
</svg>